if (_typeface_js && _typeface_js.loadFace) _typeface_js.loadFace({"glyphs":{"S":{"x_min":0,"x_max":520.875,"ha":695,"o":"m 173 1128 l 173 1215 l 347 1215 l 520 1215 l 520 1128 l 520 1041 l 347 1041 l 173 1041 l 173 1128 m 0 954 l 0 1041 l 86 1041 l 173 1041 l 173 954 l 173 868 l 86 868 l 0 868 l 0 954 m 0 260 l 0 347 l 173 347 l 347 347 l 347 520 l 347 694 l 260 694 l 173 694 l 173 781 l 173 868 l 260 868 l 347 868 l 347 781 l 347 694 l 434 694 l 520 694 l 520 520 l 520 347 l 434 347 l 347 347 l 347 260 l 347 173 l 173 173 l 0 173 l 0 260 "},"/":{"x_min":0,"x_max":520.875,"ha":695,"o":"m 347 781 l 347 868 l 434 868 l 520 868 l 520 781 l 520 694 l 434 694 l 347 694 l 347 781 m 173 607 l 173 694 l 260 694 l 347 694 l 347 607 l 347 520 l 260 520 l 173 520 l 173 607 m 0 434 l 0 520 l 86 520 l 173 520 l 173 434 l 173 347 l 86 347 l 0 347 l 0 434 "},"K":{"x_min":0,"x_max":520.875,"ha":695,"o":"m 0 694 l 0 1215 l 86 1215 l 173 1215 l 173 1041 l 173 868 l 260 868 l 347 868 l 347 781 l 347 694 l 260 694 l 173 694 l 173 434 l 173 173 l 86 173 l 0 173 l 0 694 m 347 1041 l 347 1215 l 434 1215 l 520 1215 l 520 1041 l 520 868 l 434 868 l 347 868 l 347 1041 m 347 694 l 434 694 l 520 694 l 520 434 l 520 173 l 434 173 l 347 173 l 347 434 l 347 694 "},"7":{"x_min":0,"x_max":520.875,"ha":695,"o":"m 0 954 l 0 1041 l 260 1041 l 520 1041 l 520 868 l 520 694 l 434 694 l 347 694 l 347 781 l 347 868 l 173 868 l 0 868 l 0 954 m 173 434 l 173 694 l 260 694 l 347 694 l 347 434 l 347 173 l 260 173 l 173 173 l 173 434 "},"d":{"x_min":0,"x_max":520.875,"ha":695,"o":"m 347 1041 l 347 1215 l 434 1215 l 520 1215 l 520 694 l 520 173 l 347 173 l 173 173 l 173 260 l 173 347 l 260 347 l 347 347 l 347 520 l 347 694 l 260 694 l 173 694 l 173 781 l 173 868 l 260 868 l 347 868 l 347 1041 m 0 520 l 0 694 l 86 694 l 173 694 l 173 520 l 173 347 l 86 347 l 0 347 l 0 520 "},",":{"x_min":0,"x_max":347.25,"ha":695,"o":"m 173 260 l 173 347 l 260 347 l 347 347 l 347 260 l 347 173 l 260 173 l 173 173 l 173 260 m 0 86 l 0 173 l 86 173 l 173 173 l 173 86 l 173 0 l 86 0 l 0 0 l 0 86 "},"Y":{"x_min":0,"x_max":520.875,"ha":695,"o":"m 0 1041 l 0 1215 l 86 1215 l 173 1215 l 173 1041 l 173 868 l 86 868 l 0 868 l 0 1041 m 347 1041 l 347 1215 l 434 1215 l 520 1215 l 520 1041 l 520 868 l 434 868 l 347 868 l 347 1041 m 347 868 l 347 520 l 347 173 l 260 173 l 173 173 l 173 520 l 173 868 l 260 868 l 347 868 "},"E":{"x_min":0,"x_max":520.875,"ha":695,"o":"m 0 694 l 0 1215 l 260 1215 l 520 1215 l 520 1128 l 520 1041 l 347 1041 l 173 1041 l 173 954 l 173 868 l 260 868 l 347 868 l 347 781 l 347 694 l 260 694 l 173 694 l 173 520 l 173 347 l 347 347 l 520 347 l 520 260 l 520 173 l 260 173 l 0 173 l 0 694 "},"y":{"x_min":0,"x_max":520.875,"ha":695,"o":"m 0 694 l 0 868 l 86 868 l 173 868 l 173 694 l 173 520 l 86 520 l 0 520 l 0 694 m 347 694 l 347 868 l 434 868 l 520 868 l 520 520 l 520 173 l 434 173 l 347 173 l 347 260 l 347 347 l 260 347 l 173 347 l 173 434 l 173 520 l 260 520 l 347 520 l 347 694 m 0 86 l 0 173 l 173 173 l 347 173 l 347 86 l 347 0 l 173 0 l 0 0 l 0 86 "},"\"":{"x_min":0,"x_max":520.875,"ha":695,"o":"m 0 1041 l 0 1215 l 86 1215 l 173 1215 l 173 1041 l 173 868 l 86 868 l 0 868 l 0 1041 m 347 1041 l 347 1215 l 434 1215 l 520 1215 l 520 1041 l 520 868 l 434 868 l 347 868 l 347 1041 "},"g":{"x_min":0,"x_max":520.875,"ha":695,"o":"m 173 781 l 173 868 l 347 868 l 520 868 l 520 520 l 520 173 l 434 173 l 347 173 l 347 260 l 347 347 l 260 347 l 173 347 l 173 434 l 173 520 l 260 520 l 347 520 l 347 607 l 347 694 l 260 694 l 173 694 l 173 781 m 0 607 l 0 694 l 86 694 l 173 694 l 173 607 l 173 520 l 86 520 l 0 520 l 0 607 m 0 86 l 0 173 l 173 173 l 347 173 l 347 86 l 347 0 l 173 0 l 0 0 l 0 86 "},"e":{"x_min":0,"x_max":520.875,"ha":695,"o":"m 173 781 l 173 868 l 347 868 l 520 868 l 520 694 l 520 520 l 347 520 l 173 520 l 173 434 l 173 347 l 86 347 l 0 347 l 0 520 l 0 694 l 86 694 l 173 694 l 173 781 m 173 347 l 347 347 l 520 347 l 520 260 l 520 173 l 347 173 l 173 173 l 173 260 l 173 347 "},"J":{"x_min":0,"x_max":520.875,"ha":695,"o":"m 347 781 l 347 1215 l 434 1215 l 520 1215 l 520 781 l 520 347 l 434 347 l 347 347 l 347 781 m 0 434 l 0 520 l 86 520 l 173 520 l 173 434 l 173 347 l 86 347 l 0 347 l 0 434 m 347 347 l 347 260 l 347 173 l 260 173 l 173 173 l 173 260 l 173 347 l 260 347 l 347 347 "},"|":{"x_min":173.625,"x_max":347.25,"ha":695,"o":"m 173 607 l 173 1215 l 260 1215 l 347 1215 l 347 607 l 347 0 l 260 0 l 173 0 l 173 607 "},"^":{"x_min":0,"x_max":520.875,"ha":695,"o":"m 173 1128 l 173 1215 l 260 1215 l 347 1215 l 347 1128 l 347 1041 l 260 1041 l 173 1041 l 173 1128 m 0 954 l 0 1041 l 86 1041 l 173 1041 l 173 954 l 173 868 l 86 868 l 0 868 l 0 954 m 347 1041 l 434 1041 l 520 1041 l 520 954 l 520 868 l 434 868 l 347 868 l 347 954 l 347 1041 "},"q":{"x_min":0,"x_max":520.875,"ha":695,"o":"m 173 781 l 173 868 l 347 868 l 520 868 l 520 434 l 520 0 l 434 0 l 347 0 l 347 86 l 347 173 l 260 173 l 173 173 l 173 260 l 173 347 l 260 347 l 347 347 l 347 520 l 347 694 l 260 694 l 173 694 l 173 781 m 0 520 l 0 694 l 86 694 l 173 694 l 173 520 l 173 347 l 86 347 l 0 347 l 0 520 "},"b":{"x_min":0,"x_max":520.875,"ha":695,"o":"m 0 694 l 0 1215 l 86 1215 l 173 1215 l 173 1041 l 173 868 l 260 868 l 347 868 l 347 781 l 347 694 l 260 694 l 173 694 l 173 520 l 173 347 l 260 347 l 347 347 l 347 260 l 347 173 l 173 173 l 0 173 l 0 694 m 347 347 l 347 520 l 347 694 l 434 694 l 520 694 l 520 520 l 520 347 l 434 347 l 347 347 "},"D":{"x_min":0,"x_max":520.875,"ha":695,"o":"m 0 694 l 0 1215 l 173 1215 l 347 1215 l 347 1128 l 347 1041 l 260 1041 l 173 1041 l 173 694 l 173 347 l 260 347 l 347 347 l 347 260 l 347 173 l 173 173 l 0 173 l 0 694 m 347 347 l 347 694 l 347 1041 l 434 1041 l 520 1041 l 520 694 l 520 347 l 434 347 l 347 347 "},"z":{"x_min":0,"x_max":520.875,"ha":695,"o":"m 0 781 l 0 868 l 260 868 l 520 868 l 520 694 l 520 520 l 434 520 l 347 520 l 347 607 l 347 694 l 173 694 l 0 694 l 0 781 m 173 434 l 173 520 l 260 520 l 347 520 l 347 434 l 347 347 l 434 347 l 520 347 l 520 260 l 520 173 l 260 173 l 0 173 l 0 260 l 0 347 l 86 347 l 173 347 l 173 434 "},"w":{"x_min":0,"x_max":520.875,"ha":695,"o":"m 0 520 l 0 868 l 86 868 l 173 868 l 173 694 l 173 520 l 260 520 l 347 520 l 347 694 l 347 868 l 434 868 l 520 868 l 520 520 l 520 173 l 260 173 l 0 173 l 0 520 "},"$":{"x_min":0,"x_max":520.875,"ha":695,"o":"m 173 1128 l 173 1215 l 260 1215 l 347 1215 l 347 1128 l 347 1041 l 434 1041 l 520 1041 l 520 954 l 520 868 l 434 868 l 347 868 l 347 781 l 347 694 l 434 694 l 520 694 l 520 520 l 520 347 l 434 347 l 347 347 l 347 260 l 347 173 l 260 173 l 173 173 l 173 260 l 173 347 l 86 347 l 0 347 l 0 434 l 0 520 l 86 520 l 173 520 l 173 607 l 173 694 l 86 694 l 0 694 l 0 868 l 0 1041 l 86 1041 l 173 1041 l 173 1128 "},"\\":{"x_min":0,"x_max":520.875,"ha":695,"o":"m 0 1128 l 0 1215 l 86 1215 l 173 1215 l 173 1128 l 173 1041 l 86 1041 l 0 1041 l 0 1128 m 347 1128 l 347 1215 l 434 1215 l 520 1215 l 520 1128 l 520 1041 l 434 1041 l 347 1041 l 347 1128 m 347 1041 l 347 954 l 347 868 l 434 868 l 520 868 l 520 781 l 520 694 l 434 694 l 347 694 l 347 607 l 347 520 l 434 520 l 520 520 l 520 434 l 520 347 l 434 347 l 347 347 l 347 260 l 347 173 l 260 173 l 173 173 l 173 260 l 173 347 l 86 347 l 0 347 l 0 434 l 0 520 l 86 520 l 173 520 l 173 607 l 173 694 l 86 694 l 0 694 l 0 781 l 0 868 l 86 868 l 173 868 l 173 954 l 173 1041 l 260 1041 l 347 1041 "},"~":{"x_min":0,"x_max":520.875,"ha":695,"o":"m 0 1128 l 0 1215 l 260 1215 l 520 1215 l 520 1128 l 520 1041 l 260 1041 l 0 1041 l 0 1128 "},"-":{"x_min":0,"x_max":520.875,"ha":695,"o":"m 0 607 l 0 694 l 260 694 l 520 694 l 520 607 l 520 520 l 260 520 l 0 520 l 0 607 "},"Q":{"x_min":0,"x_max":520.875,"ha":695,"o":"m 173 1128 l 173 1215 l 260 1215 l 347 1215 l 347 1128 l 347 1041 l 260 1041 l 173 1041 l 173 1128 m 0 694 l 0 1041 l 86 1041 l 173 1041 l 173 694 l 173 347 l 86 347 l 0 347 l 0 694 m 347 1041 l 434 1041 l 520 1041 l 520 694 l 520 347 l 434 347 l 347 347 l 347 694 l 347 1041 m 347 347 l 347 260 l 347 173 l 260 173 l 173 173 l 173 260 l 173 347 l 260 347 l 347 347 m 347 173 l 434 173 l 520 173 l 520 86 l 520 0 l 434 0 l 347 0 l 347 86 l 347 173 "},"M":{"x_min":0,"x_max":520.875,"ha":695,"o":"m 0 694 l 0 1215 l 86 1215 l 173 1215 l 173 1128 l 173 1041 l 260 1041 l 347 1041 l 347 1128 l 347 1215 l 434 1215 l 520 1215 l 520 694 l 520 173 l 434 173 l 347 173 l 347 434 l 347 694 l 260 694 l 173 694 l 173 434 l 173 173 l 86 173 l 0 173 l 0 694 "},"C":{"x_min":0,"x_max":520.875,"ha":695,"o":"m 173 1128 l 173 1215 l 347 1215 l 520 1215 l 520 1128 l 520 1041 l 347 1041 l 173 1041 l 173 1128 m 0 694 l 0 1041 l 86 1041 l 173 1041 l 173 694 l 173 347 l 86 347 l 0 347 l 0 694 m 173 347 l 347 347 l 520 347 l 520 260 l 520 173 l 347 173 l 173 173 l 173 260 l 173 347 "},"⌒":{"x_min":0,"x_max":1215.375,"ha":1389,"o":"m 173 1128 l 173 1215 l 607 1215 l 1041 1215 l 1041 1128 l 1041 1041 l 607 1041 l 173 1041 l 173 1128 m 0 954 l 0 1041 l 86 1041 l 173 1041 l 173 954 l 173 868 l 86 868 l 0 868 l 0 954 m 1041 1041 l 1128 1041 l 1215 1041 l 1215 954 l 1215 868 l 1128 868 l 1041 868 l 1041 954 l 1041 1041 "},"[":{"x_min":173.625,"x_max":520.875,"ha":695,"o":"m 173 607 l 173 1215 l 347 1215 l 520 1215 l 520 1128 l 520 1041 l 434 1041 l 347 1041 l 347 607 l 347 173 l 434 173 l 520 173 l 520 86 l 520 0 l 347 0 l 173 0 l 173 607 "},"L":{"x_min":0,"x_max":520.875,"ha":695,"o":"m 0 694 l 0 1215 l 86 1215 l 173 1215 l 173 781 l 173 347 l 347 347 l 520 347 l 520 260 l 520 173 l 260 173 l 0 173 l 0 694 "},"!":{"x_min":173.625,"x_max":347.25,"ha":695,"o":"m 173 868 l 173 1215 l 260 1215 l 347 1215 l 347 868 l 347 520 l 260 520 l 173 520 l 173 868 m 173 260 l 173 347 l 260 347 l 347 347 l 347 260 l 347 173 l 260 173 l 173 173 l 173 260 "}," ":{"x_min":0,"x_max":0,"ha":695},"{":{"x_min":0,"x_max":520.875,"ha":695,"o":"m 347 1128 l 347 1215 l 434 1215 l 520 1215 l 520 1128 l 520 1041 l 434 1041 l 347 1041 l 347 1128 m 173 868 l 173 1041 l 260 1041 l 347 1041 l 347 868 l 347 694 l 260 694 l 173 694 l 173 868 m 0 607 l 0 694 l 86 694 l 173 694 l 173 607 l 173 520 l 86 520 l 0 520 l 0 607 m 173 520 l 260 520 l 347 520 l 347 347 l 347 173 l 260 173 l 173 173 l 173 347 l 173 520 m 347 173 l 434 173 l 520 173 l 520 86 l 520 0 l 434 0 l 347 0 l 347 86 l 347 173 "},"X":{"x_min":0,"x_max":520.875,"ha":695,"o":"m 0 1041 l 0 1215 l 86 1215 l 173 1215 l 173 1041 l 173 868 l 86 868 l 0 868 l 0 1041 m 347 1041 l 347 1215 l 434 1215 l 520 1215 l 520 1041 l 520 868 l 434 868 l 347 868 l 347 1041 m 0 347 l 0 520 l 86 520 l 173 520 l 173 694 l 173 868 l 260 868 l 347 868 l 347 694 l 347 520 l 260 520 l 173 520 l 173 347 l 173 173 l 86 173 l 0 173 l 0 347 m 347 520 l 434 520 l 520 520 l 520 347 l 520 173 l 434 173 l 347 173 l 347 347 l 347 520 "},"P":{"x_min":0,"x_max":520.875,"ha":695,"o":"m 0 694 l 0 1215 l 173 1215 l 347 1215 l 347 1128 l 347 1041 l 260 1041 l 173 1041 l 173 868 l 173 694 l 260 694 l 347 694 l 347 607 l 347 520 l 260 520 l 173 520 l 173 347 l 173 173 l 86 173 l 0 173 l 0 694 m 347 694 l 347 868 l 347 1041 l 434 1041 l 520 1041 l 520 868 l 520 694 l 434 694 l 347 694 "},"%":{"x_min":0,"x_max":520.875,"ha":695,"o":"m 0 954 l 0 1041 l 86 1041 l 173 1041 l 173 954 l 173 868 l 86 868 l 0 868 l 0 954 m 347 781 l 347 868 l 434 868 l 520 868 l 520 781 l 520 694 l 434 694 l 347 694 l 347 781 m 173 607 l 173 694 l 260 694 l 347 694 l 347 607 l 347 520 l 260 520 l 173 520 l 173 607 m 0 434 l 0 520 l 86 520 l 173 520 l 173 434 l 173 347 l 86 347 l 0 347 l 0 434 m 347 260 l 347 347 l 434 347 l 520 347 l 520 260 l 520 173 l 434 173 l 347 173 l 347 260 "},"#":{"x_min":0,"x_max":520.875,"ha":695,"o":"m 347 694 l 347 868 l 260 868 l 173 868 l 173 694 l 173 520 l 260 520 l 347 520 l 347 694 m 0 694 l 0 1215 l 86 1215 l 173 1215 l 173 1128 l 173 1041 l 260 1041 l 347 1041 l 347 1128 l 347 1215 l 434 1215 l 520 1215 l 520 694 l 520 173 l 434 173 l 347 173 l 347 260 l 347 347 l 260 347 l 173 347 l 173 260 l 173 173 l 86 173 l 0 173 l 0 694 "},"_":{"x_min":0,"x_max":520.875,"ha":695,"o":"m 0 86 l 0 173 l 260 173 l 520 173 l 520 86 l 520 0 l 260 0 l 0 0 l 0 86 "},"+":{"x_min":0,"x_max":520.875,"ha":695,"o":"m 173 868 l 173 1041 l 260 1041 l 347 1041 l 347 868 l 347 694 l 434 694 l 520 694 l 520 607 l 520 520 l 434 520 l 347 520 l 347 347 l 347 173 l 260 173 l 173 173 l 173 347 l 173 520 l 86 520 l 0 520 l 0 607 l 0 694 l 86 694 l 173 694 l 173 868 "},")":{"x_min":0,"x_max":347.25,"ha":695,"o":"m 0 1128 l 0 1215 l 86 1215 l 173 1215 l 173 1128 l 173 1041 l 86 1041 l 0 1041 l 0 1128 m 0 86 l 0 173 l 86 173 l 173 173 l 173 607 l 173 1041 l 260 1041 l 347 1041 l 347 607 l 347 173 l 260 173 l 173 173 l 173 86 l 173 0 l 86 0 l 0 0 l 0 86 "},"'":{"x_min":0,"x_max":347.25,"ha":695,"o":"m 173 1128 l 173 1215 l 260 1215 l 347 1215 l 347 1128 l 347 1041 l 260 1041 l 173 1041 l 173 1128 m 0 954 l 0 1041 l 86 1041 l 173 1041 l 173 954 l 173 868 l 86 868 l 0 868 l 0 954 "},"}":{"x_min":0,"x_max":520.875,"ha":695,"o":"m 0 1128 l 0 1215 l 86 1215 l 173 1215 l 173 1128 l 173 1041 l 86 1041 l 0 1041 l 0 1128 m 173 347 l 173 520 l 260 520 l 347 520 l 347 607 l 347 694 l 260 694 l 173 694 l 173 868 l 173 1041 l 260 1041 l 347 1041 l 347 868 l 347 694 l 434 694 l 520 694 l 520 607 l 520 520 l 434 520 l 347 520 l 347 347 l 347 173 l 260 173 l 173 173 l 173 347 m 0 86 l 0 173 l 86 173 l 173 173 l 173 86 l 173 0 l 86 0 l 0 0 l 0 86 "},"a":{"x_min":0,"x_max":520.875,"ha":695,"o":"m 173 781 l 173 868 l 347 868 l 520 868 l 520 520 l 520 173 l 347 173 l 173 173 l 173 260 l 173 347 l 260 347 l 347 347 l 347 520 l 347 694 l 260 694 l 173 694 l 173 781 m 0 520 l 0 694 l 86 694 l 173 694 l 173 520 l 173 347 l 86 347 l 0 347 l 0 520 "},"T":{"x_min":0,"x_max":520.875,"ha":695,"o":"m 0 1128 l 0 1215 l 260 1215 l 520 1215 l 520 1128 l 520 1041 l 434 1041 l 347 1041 l 347 607 l 347 173 l 260 173 l 173 173 l 173 607 l 173 1041 l 86 1041 l 0 1041 l 0 1128 "},"=":{"x_min":0,"x_max":520.875,"ha":695,"o":"m 0 781 l 0 868 l 260 868 l 520 868 l 520 781 l 520 694 l 260 694 l 0 694 l 0 781 m 0 434 l 0 520 l 260 520 l 520 520 l 520 434 l 520 347 l 260 347 l 0 347 l 0 434 "},"N":{"x_min":0,"x_max":520.875,"ha":695,"o":"m 0 694 l 0 1215 l 173 1215 l 347 1215 l 347 1128 l 347 1041 l 260 1041 l 173 1041 l 173 607 l 173 173 l 86 173 l 0 173 l 0 694 m 347 1041 l 434 1041 l 520 1041 l 520 607 l 520 173 l 434 173 l 347 173 l 347 607 l 347 1041 "},"2":{"x_min":0,"x_max":520.875,"ha":695,"o":"m 0 954 l 0 1041 l 173 1041 l 347 1041 l 347 954 l 347 868 l 173 868 l 0 868 l 0 954 m 173 607 l 173 694 l 260 694 l 347 694 l 347 781 l 347 868 l 434 868 l 520 868 l 520 781 l 520 694 l 434 694 l 347 694 l 347 607 l 347 520 l 260 520 l 173 520 l 173 607 m 0 347 l 0 520 l 86 520 l 173 520 l 173 434 l 173 347 l 347 347 l 520 347 l 520 260 l 520 173 l 260 173 l 0 173 l 0 347 "},"j":{"x_min":0,"x_max":347.25,"ha":695,"o":"m 173 1128 l 173 1215 l 260 1215 l 347 1215 l 347 1128 l 347 1041 l 260 1041 l 173 1041 l 173 1128 m 173 520 l 173 868 l 260 868 l 347 868 l 347 520 l 347 173 l 260 173 l 173 173 l 173 520 m 0 86 l 0 173 l 86 173 l 173 173 l 173 86 l 173 0 l 86 0 l 0 0 l 0 86 "},"Z":{"x_min":0,"x_max":520.875,"ha":695,"o":"m 0 1128 l 0 1215 l 260 1215 l 520 1215 l 520 1041 l 520 868 l 434 868 l 347 868 l 347 954 l 347 1041 l 173 1041 l 0 1041 l 0 1128 m 173 694 l 173 868 l 260 868 l 347 868 l 347 694 l 347 520 l 260 520 l 173 520 l 173 694 m 0 347 l 0 520 l 86 520 l 173 520 l 173 434 l 173 347 l 347 347 l 520 347 l 520 260 l 520 173 l 260 173 l 0 173 l 0 347 "},"u":{"x_min":0,"x_max":520.875,"ha":695,"o":"m 0 520 l 0 868 l 86 868 l 173 868 l 173 607 l 173 347 l 260 347 l 347 347 l 347 607 l 347 868 l 434 868 l 520 868 l 520 520 l 520 173 l 260 173 l 0 173 l 0 520 "},"1":{"x_min":0,"x_max":520.875,"ha":695,"o":"m 173 954 l 173 1041 l 260 1041 l 347 1041 l 347 694 l 347 347 l 434 347 l 520 347 l 520 260 l 520 173 l 260 173 l 0 173 l 0 260 l 0 347 l 86 347 l 173 347 l 173 520 l 173 694 l 86 694 l 0 694 l 0 781 l 0 868 l 86 868 l 173 868 l 173 954 "},"k":{"x_min":0,"x_max":520.875,"ha":695,"o":"m 0 694 l 0 1215 l 86 1215 l 173 1215 l 173 954 l 173 694 l 260 694 l 347 694 l 347 607 l 347 520 l 260 520 l 173 520 l 173 347 l 173 173 l 86 173 l 0 173 l 0 694 m 347 781 l 347 868 l 434 868 l 520 868 l 520 781 l 520 694 l 434 694 l 347 694 l 347 781 m 347 520 l 434 520 l 520 520 l 520 347 l 520 173 l 434 173 l 347 173 l 347 347 l 347 520 "},"<":{"x_min":0,"x_max":520.875,"ha":695,"o":"m 347 954 l 347 1041 l 434 1041 l 520 1041 l 520 954 l 520 868 l 434 868 l 347 868 l 347 954 m 173 781 l 173 868 l 260 868 l 347 868 l 347 781 l 347 694 l 260 694 l 173 694 l 173 781 m 0 607 l 0 694 l 86 694 l 173 694 l 173 607 l 173 520 l 86 520 l 0 520 l 0 607 m 173 520 l 260 520 l 347 520 l 347 434 l 347 347 l 260 347 l 173 347 l 173 434 l 173 520 m 347 347 l 434 347 l 520 347 l 520 260 l 520 173 l 434 173 l 347 173 l 347 260 l 347 347 "},"t":{"x_min":0,"x_max":520.875,"ha":695,"o":"m 173 954 l 173 1041 l 260 1041 l 347 1041 l 347 954 l 347 868 l 434 868 l 520 868 l 520 781 l 520 694 l 434 694 l 347 694 l 347 520 l 347 347 l 434 347 l 520 347 l 520 260 l 520 173 l 347 173 l 173 173 l 173 434 l 173 694 l 86 694 l 0 694 l 0 781 l 0 868 l 86 868 l 173 868 l 173 954 "},"W":{"x_min":0,"x_max":520.875,"ha":695,"o":"m 0 694 l 0 1215 l 86 1215 l 173 1215 l 173 954 l 173 694 l 260 694 l 347 694 l 347 954 l 347 1215 l 434 1215 l 520 1215 l 520 694 l 520 173 l 434 173 l 347 173 l 347 260 l 347 347 l 260 347 l 173 347 l 173 260 l 173 173 l 86 173 l 0 173 l 0 694 "},"v":{"x_min":0,"x_max":520.875,"ha":695,"o":"m 0 520 l 0 868 l 86 868 l 173 868 l 173 694 l 173 520 l 260 520 l 347 520 l 347 434 l 347 347 l 260 347 l 173 347 l 173 260 l 173 173 l 86 173 l 0 173 l 0 520 m 347 694 l 347 868 l 434 868 l 520 868 l 520 694 l 520 520 l 434 520 l 347 520 l 347 694 "},">":{"x_min":0,"x_max":520.875,"ha":695,"o":"m 0 954 l 0 1041 l 86 1041 l 173 1041 l 173 954 l 173 868 l 86 868 l 0 868 l 0 954 m 173 434 l 173 520 l 260 520 l 347 520 l 347 607 l 347 694 l 260 694 l 173 694 l 173 781 l 173 868 l 260 868 l 347 868 l 347 781 l 347 694 l 434 694 l 520 694 l 520 607 l 520 520 l 434 520 l 347 520 l 347 434 l 347 347 l 260 347 l 173 347 l 173 434 m 0 260 l 0 347 l 86 347 l 173 347 l 173 260 l 173 173 l 86 173 l 0 173 l 0 260 "},"s":{"x_min":0,"x_max":520.875,"ha":695,"o":"m 173 781 l 173 868 l 347 868 l 520 868 l 520 781 l 520 694 l 434 694 l 347 694 l 347 607 l 347 520 l 434 520 l 520 520 l 520 434 l 520 347 l 434 347 l 347 347 l 347 260 l 347 173 l 173 173 l 0 173 l 0 260 l 0 347 l 86 347 l 173 347 l 173 434 l 173 520 l 86 520 l 0 520 l 0 607 l 0 694 l 86 694 l 173 694 l 173 781 "},"B":{"x_min":0,"x_max":520.875,"ha":695,"o":"m 0 694 l 0 1215 l 173 1215 l 347 1215 l 347 1128 l 347 1041 l 260 1041 l 173 1041 l 173 954 l 173 868 l 260 868 l 347 868 l 347 781 l 347 694 l 260 694 l 173 694 l 173 520 l 173 347 l 260 347 l 347 347 l 347 260 l 347 173 l 173 173 l 0 173 l 0 694 m 347 868 l 347 954 l 347 1041 l 434 1041 l 520 1041 l 520 954 l 520 868 l 434 868 l 347 868 m 347 347 l 347 520 l 347 694 l 434 694 l 520 694 l 520 520 l 520 347 l 434 347 l 347 347 "},"?":{"x_min":0,"x_max":520.875,"ha":695,"o":"m 173 1128 l 173 1215 l 260 1215 l 347 1215 l 347 1128 l 347 1041 l 260 1041 l 173 1041 l 173 1128 m 0 954 l 0 1041 l 86 1041 l 173 1041 l 173 954 l 173 868 l 86 868 l 0 868 l 0 954 m 173 607 l 173 694 l 260 694 l 347 694 l 347 868 l 347 1041 l 434 1041 l 520 1041 l 520 868 l 520 694 l 434 694 l 347 694 l 347 607 l 347 520 l 260 520 l 173 520 l 173 607 m 173 260 l 173 347 l 260 347 l 347 347 l 347 260 l 347 173 l 260 173 l 173 173 l 173 260 "},"H":{"x_min":0,"x_max":520.875,"ha":695,"o":"m 0 694 l 0 1215 l 86 1215 l 173 1215 l 173 954 l 173 694 l 260 694 l 347 694 l 347 954 l 347 1215 l 434 1215 l 520 1215 l 520 694 l 520 173 l 434 173 l 347 173 l 347 347 l 347 520 l 260 520 l 173 520 l 173 347 l 173 173 l 86 173 l 0 173 l 0 694 "},"c":{"x_min":0,"x_max":520.875,"ha":695,"o":"m 173 781 l 173 868 l 347 868 l 520 868 l 520 781 l 520 694 l 347 694 l 173 694 l 173 781 m 0 520 l 0 694 l 86 694 l 173 694 l 173 520 l 173 347 l 86 347 l 0 347 l 0 520 m 173 347 l 347 347 l 520 347 l 520 260 l 520 173 l 347 173 l 173 173 l 173 260 l 173 347 "},"&":{"x_min":0,"x_max":520.875,"ha":695,"o":"m 173 1128 l 173 1215 l 260 1215 l 347 1215 l 347 1128 l 347 1041 l 260 1041 l 173 1041 l 173 1128 m 0 954 l 0 1041 l 86 1041 l 173 1041 l 173 954 l 173 868 l 86 868 l 0 868 l 0 954 m 347 1041 l 434 1041 l 520 1041 l 520 954 l 520 868 l 434 868 l 347 868 l 347 954 l 347 1041 m 347 868 l 347 781 l 347 694 l 434 694 l 520 694 l 520 607 l 520 520 l 434 520 l 347 520 l 347 434 l 347 347 l 434 347 l 520 347 l 520 260 l 520 173 l 260 173 l 0 173 l 0 347 l 0 520 l 86 520 l 173 520 l 173 694 l 173 868 l 260 868 l 347 868 "},"I":{"x_min":0,"x_max":520.875,"ha":695,"o":"m 0 1128 l 0 1215 l 260 1215 l 520 1215 l 520 1128 l 520 1041 l 434 1041 l 347 1041 l 347 694 l 347 347 l 434 347 l 520 347 l 520 260 l 520 173 l 260 173 l 0 173 l 0 260 l 0 347 l 86 347 l 173 347 l 173 694 l 173 1041 l 86 1041 l 0 1041 l 0 1128 "},"G":{"x_min":0,"x_max":520.875,"ha":695,"o":"m 173 1128 l 173 1215 l 347 1215 l 520 1215 l 520 1128 l 520 1041 l 347 1041 l 173 1041 l 173 1128 m 0 694 l 0 1041 l 86 1041 l 173 1041 l 173 694 l 173 347 l 86 347 l 0 347 l 0 694 m 347 520 l 347 694 l 434 694 l 520 694 l 520 434 l 520 173 l 347 173 l 173 173 l 173 260 l 173 347 l 260 347 l 347 347 l 347 520 "},"(":{"x_min":173.625,"x_max":520.875,"ha":695,"o":"m 347 1128 l 347 1215 l 434 1215 l 520 1215 l 520 1128 l 520 1041 l 434 1041 l 347 1041 l 347 1128 m 173 607 l 173 1041 l 260 1041 l 347 1041 l 347 607 l 347 173 l 260 173 l 173 173 l 173 607 m 347 173 l 434 173 l 520 173 l 520 86 l 520 0 l 434 0 l 347 0 l 347 86 l 347 173 "},"`":{"x_min":173.625,"x_max":520.875,"ha":695,"o":"m 173 1128 l 173 1215 l 260 1215 l 347 1215 l 347 1128 l 347 1041 l 260 1041 l 173 1041 l 173 1128 m 347 1041 l 434 1041 l 520 1041 l 520 954 l 520 868 l 434 868 l 347 868 l 347 954 l 347 1041 "},"U":{"x_min":0,"x_max":520.875,"ha":695,"o":"m 0 694 l 0 1215 l 86 1215 l 173 1215 l 173 781 l 173 347 l 260 347 l 347 347 l 347 781 l 347 1215 l 434 1215 l 520 1215 l 520 694 l 520 173 l 260 173 l 0 173 l 0 694 "},"F":{"x_min":0,"x_max":520.875,"ha":695,"o":"m 0 694 l 0 1215 l 260 1215 l 520 1215 l 520 1128 l 520 1041 l 347 1041 l 173 1041 l 173 954 l 173 868 l 260 868 l 347 868 l 347 781 l 347 694 l 260 694 l 173 694 l 173 434 l 173 173 l 86 173 l 0 173 l 0 694 "},"r":{"x_min":0,"x_max":520.875,"ha":695,"o":"m 0 520 l 0 868 l 86 868 l 173 868 l 173 781 l 173 694 l 260 694 l 347 694 l 347 607 l 347 520 l 260 520 l 173 520 l 173 347 l 173 173 l 86 173 l 0 173 l 0 520 m 347 781 l 347 868 l 434 868 l 520 868 l 520 781 l 520 694 l 434 694 l 347 694 l 347 781 "},":":{"x_min":173.625,"x_max":347.25,"ha":695,"o":"m 173 781 l 173 868 l 260 868 l 347 868 l 347 781 l 347 694 l 260 694 l 173 694 l 173 781 m 173 260 l 173 347 l 260 347 l 347 347 l 347 260 l 347 173 l 260 173 l 173 173 l 173 260 "},"x":{"x_min":0,"x_max":520.875,"ha":695,"o":"m 0 781 l 0 868 l 86 868 l 173 868 l 173 781 l 173 694 l 86 694 l 0 694 l 0 781 m 347 781 l 347 868 l 434 868 l 520 868 l 520 781 l 520 694 l 434 694 l 347 694 l 347 781 m 0 260 l 0 347 l 86 347 l 173 347 l 173 520 l 173 694 l 260 694 l 347 694 l 347 520 l 347 347 l 260 347 l 173 347 l 173 260 l 173 173 l 86 173 l 0 173 l 0 260 m 347 347 l 434 347 l 520 347 l 520 260 l 520 173 l 434 173 l 347 173 l 347 260 l 347 347 "},"*":{"x_min":0,"x_max":520.875,"ha":695,"o":"m 173 1128 l 173 1215 l 260 1215 l 347 1215 l 347 1128 l 347 1041 l 434 1041 l 520 1041 l 520 954 l 520 868 l 434 868 l 347 868 l 347 781 l 347 694 l 260 694 l 173 694 l 173 781 l 173 868 l 86 868 l 0 868 l 0 954 l 0 1041 l 86 1041 l 173 1041 l 173 1128 m 0 607 l 0 694 l 86 694 l 173 694 l 173 607 l 173 520 l 86 520 l 0 520 l 0 607 m 347 694 l 434 694 l 520 694 l 520 607 l 520 520 l 434 520 l 347 520 l 347 607 l 347 694 "},"V":{"x_min":0,"x_max":520.875,"ha":695,"o":"m 0 694 l 0 1215 l 86 1215 l 173 1215 l 173 868 l 173 520 l 260 520 l 347 520 l 347 434 l 347 347 l 260 347 l 173 347 l 173 260 l 173 173 l 86 173 l 0 173 l 0 694 m 347 868 l 347 1215 l 434 1215 l 520 1215 l 520 868 l 520 520 l 434 520 l 347 520 l 347 868 "},"h":{"x_min":0,"x_max":520.875,"ha":695,"o":"m 0 694 l 0 1215 l 86 1215 l 173 1215 l 173 1041 l 173 868 l 260 868 l 347 868 l 347 781 l 347 694 l 260 694 l 173 694 l 173 434 l 173 173 l 86 173 l 0 173 l 0 694 m 347 694 l 434 694 l 520 694 l 520 434 l 520 173 l 434 173 l 347 173 l 347 434 l 347 694 "},"0":{"x_min":0,"x_max":520.875,"ha":695,"o":"m 173 954 l 173 1041 l 260 1041 l 347 1041 l 347 954 l 347 868 l 260 868 l 173 868 l 173 954 m 0 607 l 0 868 l 86 868 l 173 868 l 173 781 l 173 694 l 260 694 l 347 694 l 347 781 l 347 868 l 434 868 l 520 868 l 520 607 l 520 347 l 434 347 l 347 347 l 347 434 l 347 520 l 260 520 l 173 520 l 173 434 l 173 347 l 86 347 l 0 347 l 0 607 m 347 347 l 347 260 l 347 173 l 260 173 l 173 173 l 173 260 l 173 347 l 260 347 l 347 347 "},".":{"x_min":173.625,"x_max":347.25,"ha":695,"o":"m 173 260 l 173 347 l 260 347 l 347 347 l 347 260 l 347 173 l 260 173 l 173 173 l 173 260 "},"@":{"x_min":0,"x_max":520.875,"ha":695,"o":"m 173 1128 l 173 1215 l 260 1215 l 347 1215 l 347 1128 l 347 1041 l 260 1041 l 173 1041 l 173 1128 m 0 954 l 0 1041 l 86 1041 l 173 1041 l 173 954 l 173 868 l 86 868 l 0 868 l 0 954 m 0 434 l 0 520 l 86 520 l 173 520 l 173 607 l 173 694 l 260 694 l 347 694 l 347 868 l 347 1041 l 434 1041 l 520 1041 l 520 694 l 520 347 l 434 347 l 347 347 l 347 434 l 347 520 l 260 520 l 173 520 l 173 434 l 173 347 l 86 347 l 0 347 l 0 434 m 347 347 l 347 260 l 347 173 l 260 173 l 173 173 l 173 260 l 173 347 l 260 347 l 347 347 "},"f":{"x_min":0,"x_max":520.875,"ha":695,"o":"m 173 1041 l 173 1215 l 347 1215 l 520 1215 l 520 1128 l 520 1041 l 434 1041 l 347 1041 l 347 954 l 347 868 l 434 868 l 520 868 l 520 781 l 520 694 l 434 694 l 347 694 l 347 434 l 347 173 l 260 173 l 173 173 l 173 434 l 173 694 l 86 694 l 0 694 l 0 781 l 0 868 l 86 868 l 173 868 l 173 1041 "},";":{"x_min":0,"x_max":347.25,"ha":695,"o":"m 173 781 l 173 868 l 260 868 l 347 868 l 347 781 l 347 694 l 260 694 l 173 694 l 173 781 m 173 260 l 173 347 l 260 347 l 347 347 l 347 260 l 347 173 l 260 173 l 173 173 l 173 260 m 0 86 l 0 173 l 86 173 l 173 173 l 173 86 l 173 0 l 86 0 l 0 0 l 0 86 "},"i":{"x_min":173.625,"x_max":347.25,"ha":695,"o":"m 173 1128 l 173 1215 l 260 1215 l 347 1215 l 347 1128 l 347 1041 l 260 1041 l 173 1041 l 173 1128 m 173 520 l 173 868 l 260 868 l 347 868 l 347 520 l 347 173 l 260 173 l 173 173 l 173 520 "},"6":{"x_min":0,"x_max":520.875,"ha":695,"o":"m 173 954 l 173 1041 l 347 1041 l 520 1041 l 520 954 l 520 868 l 347 868 l 173 868 l 173 954 m 0 607 l 0 868 l 86 868 l 173 868 l 173 781 l 173 694 l 260 694 l 347 694 l 347 607 l 347 520 l 260 520 l 173 520 l 173 434 l 173 347 l 86 347 l 0 347 l 0 607 m 347 520 l 434 520 l 520 520 l 520 434 l 520 347 l 434 347 l 347 347 l 347 434 l 347 520 m 347 347 l 347 260 l 347 173 l 260 173 l 173 173 l 173 260 l 173 347 l 260 347 l 347 347 "},"A":{"x_min":0,"x_max":520.875,"ha":695,"o":"m 173 1128 l 173 1215 l 260 1215 l 347 1215 l 347 1128 l 347 1041 l 260 1041 l 173 1041 l 173 1128 m 0 607 l 0 1041 l 86 1041 l 173 1041 l 173 868 l 173 694 l 260 694 l 347 694 l 347 868 l 347 1041 l 434 1041 l 520 1041 l 520 607 l 520 173 l 434 173 l 347 173 l 347 347 l 347 520 l 260 520 l 173 520 l 173 347 l 173 173 l 86 173 l 0 173 l 0 607 "},"n":{"x_min":0,"x_max":520.875,"ha":695,"o":"m 0 520 l 0 868 l 173 868 l 347 868 l 347 781 l 347 694 l 260 694 l 173 694 l 173 434 l 173 173 l 86 173 l 0 173 l 0 520 m 347 694 l 434 694 l 520 694 l 520 434 l 520 173 l 434 173 l 347 173 l 347 434 l 347 694 "},"O":{"x_min":0,"x_max":520.875,"ha":695,"o":"m 173 1128 l 173 1215 l 260 1215 l 347 1215 l 347 1128 l 347 1041 l 260 1041 l 173 1041 l 173 1128 m 0 694 l 0 1041 l 86 1041 l 173 1041 l 173 694 l 173 347 l 86 347 l 0 347 l 0 694 m 347 1041 l 434 1041 l 520 1041 l 520 694 l 520 347 l 434 347 l 347 347 l 347 694 l 347 1041 m 347 347 l 347 260 l 347 173 l 260 173 l 173 173 l 173 260 l 173 347 l 260 347 l 347 347 "},"3":{"x_min":0,"x_max":520.875,"ha":695,"o":"m 0 954 l 0 1041 l 173 1041 l 347 1041 l 347 954 l 347 868 l 173 868 l 0 868 l 0 954 m 173 607 l 173 694 l 260 694 l 347 694 l 347 781 l 347 868 l 434 868 l 520 868 l 520 781 l 520 694 l 434 694 l 347 694 l 347 607 l 347 520 l 260 520 l 173 520 l 173 607 m 0 260 l 0 347 l 173 347 l 347 347 l 347 434 l 347 520 l 434 520 l 520 520 l 520 434 l 520 347 l 434 347 l 347 347 l 347 260 l 347 173 l 173 173 l 0 173 l 0 260 "},"]":{"x_min":0,"x_max":347.25,"ha":695,"o":"m 0 1128 l 0 1215 l 173 1215 l 347 1215 l 347 607 l 347 0 l 173 0 l 0 0 l 0 86 l 0 173 l 86 173 l 173 173 l 173 607 l 173 1041 l 86 1041 l 0 1041 l 0 1128 "},"m":{"x_min":0,"x_max":520.875,"ha":695,"o":"m 0 520 l 0 868 l 173 868 l 347 868 l 347 781 l 347 694 l 434 694 l 520 694 l 520 434 l 520 173 l 434 173 l 347 173 l 347 260 l 347 347 l 260 347 l 173 347 l 173 260 l 173 173 l 86 173 l 0 173 l 0 520 "},"9":{"x_min":0,"x_max":520.875,"ha":695,"o":"m 173 954 l 173 1041 l 260 1041 l 347 1041 l 347 954 l 347 868 l 260 868 l 173 868 l 173 954 m 0 781 l 0 868 l 86 868 l 173 868 l 173 781 l 173 694 l 86 694 l 0 694 l 0 781 m 0 260 l 0 347 l 173 347 l 347 347 l 347 434 l 347 520 l 260 520 l 173 520 l 173 607 l 173 694 l 260 694 l 347 694 l 347 781 l 347 868 l 434 868 l 520 868 l 520 607 l 520 347 l 434 347 l 347 347 l 347 260 l 347 173 l 173 173 l 0 173 l 0 260 "},"l":{"x_min":0,"x_max":347.25,"ha":695,"o":"m 0 1128 l 0 1215 l 173 1215 l 347 1215 l 347 694 l 347 173 l 260 173 l 173 173 l 173 607 l 173 1041 l 86 1041 l 0 1041 l 0 1128 "},"8":{"x_min":0,"x_max":520.875,"ha":695,"o":"m 173 954 l 173 1041 l 260 1041 l 347 1041 l 347 954 l 347 868 l 260 868 l 173 868 l 173 954 m 0 781 l 0 868 l 86 868 l 173 868 l 173 781 l 173 694 l 86 694 l 0 694 l 0 781 m 0 434 l 0 520 l 86 520 l 173 520 l 173 607 l 173 694 l 260 694 l 347 694 l 347 781 l 347 868 l 434 868 l 520 868 l 520 781 l 520 694 l 434 694 l 347 694 l 347 607 l 347 520 l 260 520 l 173 520 l 173 434 l 173 347 l 86 347 l 0 347 l 0 434 m 347 520 l 434 520 l 520 520 l 520 434 l 520 347 l 434 347 l 347 347 l 347 434 l 347 520 m 347 347 l 347 260 l 347 173 l 260 173 l 173 173 l 173 260 l 173 347 l 260 347 l 347 347 "},"p":{"x_min":0,"x_max":520.875,"ha":695,"o":"m 0 434 l 0 868 l 173 868 l 347 868 l 347 781 l 347 694 l 260 694 l 173 694 l 173 520 l 173 347 l 260 347 l 347 347 l 347 260 l 347 173 l 260 173 l 173 173 l 173 86 l 173 0 l 86 0 l 0 0 l 0 434 m 347 347 l 347 520 l 347 694 l 434 694 l 520 694 l 520 520 l 520 347 l 434 347 l 347 347 "},"4":{"x_min":0,"x_max":520.875,"ha":695,"o":"m 347 954 l 347 1041 l 434 1041 l 520 1041 l 520 607 l 520 173 l 434 173 l 347 173 l 347 260 l 347 347 l 173 347 l 0 347 l 0 520 l 0 694 l 86 694 l 173 694 l 173 781 l 173 868 l 260 868 l 347 868 l 347 954 m 173 694 l 173 607 l 173 520 l 260 520 l 347 520 l 347 607 l 347 694 l 260 694 l 173 694 "},"R":{"x_min":0,"x_max":520.875,"ha":695,"o":"m 0 694 l 0 1215 l 173 1215 l 347 1215 l 347 1128 l 347 1041 l 260 1041 l 173 1041 l 173 868 l 173 694 l 260 694 l 347 694 l 347 607 l 347 520 l 260 520 l 173 520 l 173 347 l 173 173 l 86 173 l 0 173 l 0 694 m 347 694 l 347 868 l 347 1041 l 434 1041 l 520 1041 l 520 868 l 520 694 l 434 694 l 347 694 m 347 520 l 434 520 l 520 520 l 520 347 l 520 173 l 434 173 l 347 173 l 347 347 l 347 520 "},"o":{"x_min":0,"x_max":520.875,"ha":695,"o":"m 173 781 l 173 868 l 260 868 l 347 868 l 347 781 l 347 694 l 260 694 l 173 694 l 173 781 m 0 520 l 0 694 l 86 694 l 173 694 l 173 520 l 173 347 l 86 347 l 0 347 l 0 520 m 347 694 l 434 694 l 520 694 l 520 520 l 520 347 l 434 347 l 347 347 l 347 520 l 347 694 m 347 347 l 347 260 l 347 173 l 260 173 l 173 173 l 173 260 l 173 347 l 260 347 l 347 347 "},"5":{"x_min":0,"x_max":520.875,"ha":695,"o":"m 0 781 l 0 1041 l 260 1041 l 520 1041 l 520 954 l 520 868 l 347 868 l 173 868 l 173 781 l 173 694 l 260 694 l 347 694 l 347 607 l 347 520 l 173 520 l 0 520 l 0 781 m 0 260 l 0 347 l 173 347 l 347 347 l 347 434 l 347 520 l 434 520 l 520 520 l 520 434 l 520 347 l 434 347 l 347 347 l 347 260 l 347 173 l 173 173 l 0 173 l 0 260 "}}}
